<svg width="512" height="512" viewBox="0 0 512 512" xmlns="http://www.w3.org/2000/svg" role="img" aria-label="GitVerse app icon">
  <defs>
    <linearGradient id="gv-bg" x1="0" y1="0" x2="1" y2="1">
      <stop offset="0" stop-color="#211d3c"></stop>
      <stop offset="1" stop-color="#0d0c18"></stop>
    </linearGradient>
  </defs>
  <rect width="512" height="512" rx="115" fill="url(#gv-bg)"></rect>
  <circle cx="256" cy="256" r="188" fill="none" stroke="#2e2a50" stroke-width="2" opacity="0.55"></circle>
  <circle cx="256" cy="256" r="140" fill="none" stroke="#2e2a50" stroke-width="1.5" opacity="0.35"></circle>
  <g transform="translate(47,47) scale(3.49)">
    <g fill="none" stroke-width="6.5" stroke-linecap="round">
      <path d="M40 28 V92" stroke="#7b72e8"></path>
      <path d="M40 46 H80 V70" stroke="#1dccb2"></path>
    </g>
    <circle cx="40" cy="28" r="11" fill="#7b72e8"></circle>
    <circle cx="40" cy="28" r="4.5" fill="#c4c0ff"></circle>
    <circle cx="40" cy="46" r="5.5" fill="#9b91ff"></circle>
    <circle cx="80" cy="46" r="10" fill="#1dccb2"></circle>
    <circle cx="80" cy="46" r="4" fill="#a0f5e8"></circle>
    <circle cx="40" cy="70" r="5.5" fill="#8b7fe8"></circle>
    <circle cx="80" cy="70" r="9.5" fill="#8b7fe8"></circle>
    <circle cx="80" cy="70" r="3.8" fill="#c4c0ff"></circle>
    <circle cx="40" cy="92" r="11" fill="#1dccb2"></circle>
    <circle cx="40" cy="92" r="4.5" fill="#a0f5e8"></circle>
  </g>
  <rect x="1" y="1" width="510" height="510" rx="114" fill="none" stroke="#3a3568" stroke-width="2" opacity="0.6"></rect>
</svg>